#tb 0: 1/24
#media_type 0: video
#codec_id 0: jpeg2000
#dimensions 0: 1920x1080
#sar 0: 0/1
0,          0,          0,        1,     5034, 0x29a972c1
0,          1,          1,        1,     7214, 0x704fb452
0,          2,          2,        1,     8496, 0xee9d2692
0,          3,          3,        1,     4917, 0xd35c1a2f
0,          4,          4,        1,     8803, 0xdc01ad91
0,          5,          5,        1,     8426, 0xacc4413a
0,          6,          6,        1,     9626, 0x46865f1e
0,          7,          7,        1,     7409, 0xa21efc69
0,          8,          8,        1,     7409, 0xa21efc69
0,          9,          9,        1,     7409, 0xa21efc69
0,         10,         10,        1,     7409, 0xa21efc69
0,         11,         11,        1,     7409, 0xa21efc69
0,         12,         12,        1,     7409, 0xa21efc69
0,         13,         13,        1,     7409, 0xa21efc69
0,         14,         14,        1,     7409, 0xa21efc69
0,         15,         15,        1,     7409, 0xa21efc69
0,         16,         16,        1,     7409, 0xa21efc69
0,         17,         17,        1,     7409, 0xa21efc69
0,         18,         18,        1,     7409, 0xa21efc69
0,         19,         19,        1,     7409, 0xa21efc69
0,         20,         20,        1,     7409, 0xa21efc69
0,         21,         21,        1,     7409, 0xa21efc69
0,         22,         22,        1,     7409, 0xa21efc69
0,         23,         23,        1,     7409, 0xa21efc69
0,         24,         24,        1,     7409, 0xa21efc69
0,         25,         25,        1,     7409, 0xa21efc69
0,         26,         26,        1,     7409, 0xa21efc69
0,         27,         27,        1,     7409, 0xa21efc69
0,         28,         28,        1,     7409, 0xa21efc69
0,         29,         29,        1,     7409, 0xa21efc69
0,         30,         30,        1,     7409, 0xa21efc69
0,         30,         31,        1,     8426, 0xacc4413a
0,         30,         32,        1,     9626, 0x46865f1e
0,         30,         33,        1,     5412, 0xf4884a91
0,         30,         34,        1,     9129, 0xbdb77fb3
0,         30,         35,        1,    10009, 0xac8a3ec5
0,         30,         36,        1,     7204, 0x4e239746
0,         30,         37,        1,     9413, 0x27620541
0,         30,         38,        1,    10725, 0x2feb9589
0,         30,         39,        1,     7101, 0x62159f85
0,         30,         40,        1,    10984, 0xa2eb2e49
